<svg width="20" height="20" viewBox="0 0 20 20" fill="none" xmlns="http://www.w3.org/2000/svg">
<g clip-path="url(#clip0_319_94)">
<path d="M0.0129436 20.0102C-0.0265447 19.3387 0.0100411 18.6649 0.12202 18.0014C0.347549 16.5723 0.890385 15.2101 1.71161 14.0125C2.53283 12.815 3.61211 11.8118 4.87205 11.0748C5.02788 10.9799 5.19928 10.9081 5.34991 10.8183C5.37234 10.7992 5.39837 10.7848 5.4265 10.7757C5.45462 10.7667 5.48429 10.7633 5.51376 10.7657C5.54324 10.7681 5.57194 10.7762 5.5982 10.7896C5.62447 10.8031 5.64777 10.8215 5.66675 10.8439C6.27719 11.3566 6.98288 11.747 7.74441 11.9932C8.81195 12.3675 9.95838 12.467 11.0757 12.2826C12.1929 12.0981 13.2443 11.6357 14.1306 10.9388C14.4422 10.7105 14.437 10.6977 14.7643 10.8824C16.0768 11.5773 17.2141 12.5553 18.0917 13.7438C18.9693 14.9322 19.5647 16.3006 19.8337 17.7475C19.9831 18.4921 20.038 19.2521 19.9974 20.0102H0.0129436Z" fill="#304042"/>
<path d="M9.95197 11.2878C8.82051 11.2878 7.71452 10.956 6.77422 10.3343C5.83391 9.71266 5.10163 8.82922 4.67019 7.79598C4.23876 6.76275 4.1276 5.62624 4.35081 4.53053C4.57402 3.43481 5.12154 2.42923 5.92398 1.64126C6.72641 0.853288 7.74762 0.318404 8.85815 0.104413C9.96869 -0.109578 11.1185 0.00695986 12.1619 0.439253C13.2054 0.871547 14.0953 1.60013 14.7191 2.53264C15.3428 3.46516 15.6722 4.55961 15.6655 5.67727C15.6566 7.16835 15.0507 8.59535 13.9802 9.64659C12.9096 10.6978 11.4615 11.2879 9.95197 11.2878V11.2878Z" fill="#304042"/>
</g>
<defs>
<clipPath id="clip0_319_94">
<rect width="20" height="20" fill="white"/>
</clipPath>
</defs>
</svg>
