<svg width="20" height="20" viewBox="0 0 20 20" fill="none" xmlns="http://www.w3.org/2000/svg">
<g clip-path="url(#clip0_319_95)">
<path d="M19.5338 3.55856C19.3011 3.51035 19.0648 3.48412 18.8278 3.48018C17.4805 3.41805 16.1287 3.36261 14.7787 3.30334C13.5153 3.2479 12.2515 3.19119 10.9875 3.1332C10.498 3.11025 10.0094 3.08445 9.51984 3.06246C8.67285 3.02518 7.82586 2.98503 6.97886 2.95827C6.89753 2.95506 6.81642 2.96931 6.74037 3.00018C6.66432 3.03105 6.59489 3.07789 6.53621 3.13793C6.47754 3.19796 6.43083 3.26995 6.39886 3.34961C6.36689 3.42927 6.35031 3.51496 6.35013 3.60158C6.35608 3.74367 6.40412 3.88011 6.48737 3.99137C6.57062 4.10263 6.68481 4.18301 6.8136 4.22099L4.65794 4.19614C4.5304 3.44768 4.40106 2.69444 4.2789 1.94025C4.21513 1.54834 4.00944 1.33804 3.6852 1.20326C2.75916 0.820907 1.83762 0.431862 0.911587 0.0561985C0.800083 0.0117124 0.681076 -0.00749689 0.562191 -0.000198738C0.282854 0.018919 -0.0458833 0.401273 0.00531359 0.66223C0.0242802 0.795012 0.0757725 0.920136 0.15461 1.02501C0.233447 1.12989 0.336848 1.21082 0.454409 1.25966C1.17296 1.55503 1.88073 1.85996 2.59749 2.14959C3.09688 2.35128 3.09958 2.34077 3.1876 2.9143C3.1876 2.94202 3.19928 2.96974 3.20467 2.99746C3.51544 4.76649 3.82442 6.53615 4.1316 8.30645C4.35076 9.57523 4.56752 10.844 4.78189 12.1128L4.89776 12.7867C4.91572 12.8928 4.93458 12.9998 4.95254 13.106C5.02081 13.5026 5.26332 13.7149 5.64325 13.7196H5.90732C5.88127 13.8152 5.866 13.8802 5.84445 13.9433C5.64056 14.5541 5.43397 15.163 5.23098 15.7738C5.08278 16.2221 5.29565 16.55 5.73936 16.5596C5.88038 16.5596 6.02229 16.5596 6.23067 16.5596C5.84894 17.0844 5.66391 17.6044 5.73038 18.2018C5.75628 18.4871 5.84154 18.7626 5.97997 19.0085C6.11839 19.2543 6.30651 19.4643 6.53067 19.6232C7.17018 20.0877 8.00549 20.1633 8.66926 19.6232C9.70487 18.7724 9.73631 17.7248 9.02853 16.5892H13.2931C12.9231 17.0595 12.7434 17.5594 12.7857 18.1234C12.8017 18.3958 12.8718 18.6616 12.9913 18.9031C13.1108 19.1447 13.2771 19.3565 13.4791 19.5247C13.8138 19.8256 14.2378 19.9907 14.6759 19.9907C15.114 19.9907 15.538 19.8256 15.8727 19.5247C16.198 19.2499 16.4247 18.8645 16.5149 18.4331C16.664 17.7544 16.4844 17.1599 16.0838 16.6217L16.1126 16.5672C16.3164 16.5672 16.5203 16.5739 16.7242 16.5672C16.8483 16.5656 16.9673 16.5144 17.0575 16.4237C17.1476 16.333 17.2025 16.2095 17.211 16.0778C17.2216 15.9463 17.1848 15.8155 17.108 15.7119C17.0313 15.6082 16.9204 15.5395 16.7979 15.5196C16.6884 15.4967 16.5771 15.4851 16.4655 15.4852C13.1925 15.4852 9.91984 15.4852 6.64743 15.4852C6.57378 15.4852 6.49923 15.4746 6.40941 15.467C6.57468 14.9709 6.73006 14.5111 6.88276 14.0437C6.98515 13.7321 6.98335 13.7311 7.30041 13.7311H16.6227C16.9712 13.7311 17.1616 13.5935 17.2955 13.2532C17.3323 13.1576 17.3601 13.0543 17.3907 12.954C17.7068 11.9025 18.0233 10.851 18.3401 9.79954C18.5529 9.08072 18.7721 8.3791 18.9805 7.67557C19.3074 6.58968 19.6263 5.50188 19.9604 4.41982C20.0817 4.02695 19.92 3.65129 19.5338 3.55856ZM14.7024 17.027C14.8183 17.0303 14.9326 17.0578 15.0385 17.108C15.1444 17.1583 15.2401 17.2302 15.3199 17.3198C15.3997 17.4093 15.4622 17.5148 15.5037 17.63C15.5452 17.7453 15.565 17.8681 15.562 17.9915C15.5589 18.1149 15.533 18.2364 15.4858 18.3492C15.4386 18.4619 15.371 18.5637 15.2869 18.6486C15.2027 18.7336 15.1036 18.8 14.9953 18.8443C14.8871 18.8885 14.7716 18.9095 14.6557 18.9063C14.4215 18.8997 14.1994 18.7944 14.0382 18.6135C13.877 18.4326 13.7899 18.191 13.7961 17.9418C13.8023 17.6926 13.9013 17.4562 14.0712 17.2846C14.2412 17.1131 14.4682 17.0204 14.7024 17.027ZM7.61927 17.027C7.79324 17.0281 7.96302 17.084 8.10728 17.1874C8.25155 17.2909 8.36387 17.4374 8.43015 17.6086C8.49644 17.7798 8.51372 17.968 8.47984 18.1496C8.44596 18.3312 8.36242 18.4981 8.23972 18.6294C8.11701 18.7606 7.96061 18.8504 7.79014 18.8873C7.61967 18.9243 7.44274 18.9068 7.28156 18.8372C7.12037 18.7675 6.98212 18.6487 6.88417 18.4957C6.78621 18.3427 6.73291 18.1623 6.73096 17.9771C6.73037 17.8526 6.75292 17.7292 6.7973 17.614C6.84169 17.4989 6.90704 17.3941 6.9896 17.3059C7.07216 17.2177 7.17029 17.1477 7.27836 17.1C7.38642 17.0523 7.50228 17.0278 7.61927 17.028V17.027Z" fill="#304042"/>
<path d="M4.89883 12.7869H4.79374L4.78296 12.113L4.89883 12.7869Z" fill="#304042"/>
</g>
<defs>
<clipPath id="clip0_319_95">
<rect width="20" height="20" fill="white"/>
</clipPath>
</defs>
</svg>
