<svg width="212" height="32" viewBox="0 0 212 32" fill="none" xmlns="http://www.w3.org/2000/svg">
<path d="M4.168 6.088V12.904H14.984V16.424H4.168V25H0.00800014V2.6H16.36V6.088H4.168ZM25.9958 7.72C28.5131 7.72 30.4331 8.328 31.7558 9.544C33.0998 10.7387 33.7718 12.552 33.7718 14.984V25H29.9958V22.92C29.5051 23.6667 28.8011 24.2427 27.8838 24.648C26.9878 25.032 25.8998 25.224 24.6198 25.224C23.3398 25.224 22.2198 25.0107 21.2598 24.584C20.2998 24.136 19.5531 23.528 19.0198 22.76C18.5078 21.9707 18.2518 21.0853 18.2518 20.104C18.2518 18.568 18.8171 17.3413 19.9478 16.424C21.0998 15.4853 22.9024 15.016 25.3558 15.016H29.7718V14.76C29.7718 13.5653 29.4091 12.648 28.6838 12.008C27.9798 11.368 26.9238 11.048 25.5158 11.048C24.5558 11.048 23.6064 11.1973 22.6678 11.496C21.7504 11.7947 20.9718 12.2107 20.3318 12.744L18.7638 9.832C19.6598 9.14933 20.7371 8.62667 21.9958 8.264C23.2544 7.90133 24.5878 7.72 25.9958 7.72ZM25.4518 22.312C26.4544 22.312 27.3398 22.088 28.1078 21.64C28.8971 21.1707 29.4518 20.5093 29.7718 19.656V17.672H25.6438C23.3398 17.672 22.1878 18.4293 22.1878 19.944C22.1878 20.6693 22.4758 21.2453 23.0518 21.672C23.6278 22.0987 24.4278 22.312 25.4518 22.312ZM44.1853 25.224C42.7986 25.224 41.4439 25.0427 40.1213 24.68C38.7986 24.3173 37.7426 23.8587 36.9533 23.304L38.4893 20.264C39.2573 20.776 40.1746 21.192 41.2413 21.512C42.3293 21.8107 43.3959 21.96 44.4413 21.96C46.8306 21.96 48.0253 21.3307 48.0253 20.072C48.0253 19.4747 47.7159 19.0587 47.0973 18.824C46.4999 18.5893 45.5293 18.3653 44.1853 18.152C42.7773 17.9387 41.6253 17.6933 40.7293 17.416C39.8546 17.1387 39.0866 16.6587 38.4253 15.976C37.7853 15.272 37.4653 14.3013 37.4653 13.064C37.4653 11.4427 38.1373 10.152 39.4813 9.192C40.8466 8.21067 42.6813 7.72 44.9853 7.72C46.1586 7.72 47.3319 7.85867 48.5053 8.136C49.6786 8.392 50.6386 8.744 51.3853 9.192L49.8493 12.232C48.3986 11.3787 46.7666 10.952 44.9533 10.952C43.7799 10.952 42.8839 11.1333 42.2653 11.496C41.6679 11.8373 41.3693 12.296 41.3693 12.872C41.3693 13.512 41.6893 13.9707 42.3293 14.248C42.9906 14.504 44.0039 14.7493 45.3693 14.984C46.7346 15.1973 47.8546 15.4427 48.7293 15.72C49.6039 15.9973 50.3506 16.4667 50.9693 17.128C51.6093 17.7893 51.9293 18.728 51.9293 19.944C51.9293 21.544 51.2359 22.824 49.8493 23.784C48.4626 24.744 46.5746 25.224 44.1853 25.224ZM65.07 7.72C67.2247 7.72 68.9527 8.34933 70.254 9.608C71.5553 10.8667 72.206 12.7333 72.206 15.208V25H68.206V15.72C68.206 14.2267 67.854 13.1067 67.15 12.36C66.446 11.592 65.4433 11.208 64.142 11.208C62.67 11.208 61.5073 11.656 60.654 12.552C59.8007 13.4267 59.374 14.696 59.374 16.36V25H55.374V1.256H59.374V9.896C60.0353 9.192 60.846 8.65867 61.806 8.296C62.7873 7.912 63.8753 7.72 65.07 7.72ZM77.2803 7.912H81.2803V25H77.2803V7.912ZM79.2963 5.096C78.5709 5.096 77.9629 4.872 77.4723 4.424C76.9816 3.95467 76.7363 3.37867 76.7363 2.696C76.7363 2.01333 76.9816 1.448 77.4723 0.999998C77.9629 0.530666 78.5709 0.296 79.2963 0.296C80.0216 0.296 80.6296 0.519999 81.1203 0.967999C81.6109 1.39467 81.8563 1.93867 81.8563 2.6C81.8563 3.304 81.6109 3.90133 81.1203 4.392C80.6509 4.86133 80.0429 5.096 79.2963 5.096ZM94.2103 25.224C92.4823 25.224 90.9249 24.8507 89.5383 24.104C88.1516 23.3573 87.0636 22.3227 86.2743 21C85.5063 19.656 85.1223 18.1413 85.1223 16.456C85.1223 14.7707 85.5063 13.2667 86.2743 11.944C87.0636 10.6213 88.1516 9.58667 89.5383 8.84C90.9249 8.09333 92.4823 7.72 94.2103 7.72C95.9596 7.72 97.5276 8.09333 98.9143 8.84C100.301 9.58667 101.378 10.6213 102.146 11.944C102.936 13.2667 103.33 14.7707 103.33 16.456C103.33 18.1413 102.936 19.656 102.146 21C101.378 22.3227 100.301 23.3573 98.9143 24.104C97.5276 24.8507 95.9596 25.224 94.2103 25.224ZM94.2103 21.8C95.6823 21.8 96.8983 21.3093 97.8583 20.328C98.8183 19.3467 99.2983 18.056 99.2983 16.456C99.2983 14.856 98.8183 13.5653 97.8583 12.584C96.8983 11.6027 95.6823 11.112 94.2103 11.112C92.7383 11.112 91.5223 11.6027 90.5623 12.584C89.6236 13.5653 89.1543 14.856 89.1543 16.456C89.1543 18.056 89.6236 19.3467 90.5623 20.328C91.5223 21.3093 92.7383 21.8 94.2103 21.8ZM116.851 7.72C119.006 7.72 120.734 8.34933 122.035 9.608C123.337 10.8667 123.987 12.7333 123.987 15.208V25H119.987V15.72C119.987 14.2267 119.635 13.1067 118.931 12.36C118.227 11.592 117.225 11.208 115.923 11.208C114.451 11.208 113.289 11.656 112.435 12.552C111.582 13.4267 111.155 14.696 111.155 16.36V25H107.155V7.912H110.963V10.12C111.625 9.33067 112.457 8.73333 113.459 8.328C114.462 7.92267 115.593 7.72 116.851 7.72ZM145.105 25.192C143.441 25.192 141.841 24.9253 140.305 24.392C138.791 23.8587 137.617 23.1547 136.785 22.28L137.713 20.456C138.524 21.2667 139.601 21.928 140.945 22.44C142.289 22.9307 143.676 23.176 145.105 23.176C147.111 23.176 148.615 22.8133 149.617 22.088C150.62 21.3413 151.121 20.3813 151.121 19.208C151.121 18.312 150.844 17.5973 150.289 17.064C149.756 16.5307 149.095 16.1253 148.305 15.848C147.516 15.5493 146.417 15.2293 145.009 14.888C143.324 14.4613 141.98 14.056 140.977 13.672C139.975 13.2667 139.111 12.6587 138.385 11.848C137.681 11.0373 137.329 9.93867 137.329 8.552C137.329 7.42133 137.628 6.39733 138.225 5.48C138.823 4.54133 139.74 3.79467 140.977 3.24C142.215 2.68533 143.751 2.408 145.585 2.408C146.865 2.408 148.113 2.58933 149.329 2.952C150.567 3.29333 151.633 3.77333 152.529 4.392L151.729 6.28C150.791 5.66133 149.788 5.20267 148.721 4.904C147.655 4.584 146.609 4.424 145.585 4.424C143.623 4.424 142.14 4.808 141.137 5.576C140.156 6.32267 139.665 7.29333 139.665 8.488C139.665 9.384 139.932 10.1093 140.465 10.664C141.02 11.1973 141.703 11.6133 142.513 11.912C143.345 12.1893 144.455 12.4987 145.841 12.84C147.484 13.2453 148.807 13.6507 149.809 14.056C150.833 14.44 151.697 15.0373 152.401 15.848C153.105 16.6373 153.457 17.7147 153.457 19.08C153.457 20.2107 153.148 21.2453 152.529 22.184C151.932 23.1013 151.004 23.8373 149.745 24.392C148.487 24.9253 146.94 25.192 145.105 25.192ZM167.001 23.976C166.574 24.36 166.041 24.6587 165.401 24.872C164.782 25.064 164.131 25.16 163.449 25.16C161.87 25.16 160.654 24.7333 159.801 23.88C158.947 23.0267 158.521 21.8213 158.521 20.264V10.088H155.513V8.168H158.521V4.488H160.793V8.168H165.913V10.088H160.793V20.136C160.793 21.1387 161.038 21.9067 161.529 22.44C162.041 22.952 162.766 23.208 163.705 23.208C164.174 23.208 164.622 23.1333 165.049 22.984C165.497 22.8347 165.881 22.6213 166.201 22.344L167.001 23.976ZM184.968 8.168L176.552 27.016C175.87 28.5947 175.08 29.7147 174.184 30.376C173.288 31.0373 172.211 31.368 170.952 31.368C170.142 31.368 169.384 31.24 168.68 30.984C167.976 30.728 167.368 30.344 166.856 29.832L167.912 28.136C168.766 28.9893 169.79 29.416 170.984 29.416C171.752 29.416 172.403 29.2027 172.936 28.776C173.491 28.3493 174.003 27.624 174.472 26.6L175.208 24.968L167.688 8.168H170.056L176.392 22.472L182.728 8.168H184.968ZM188.168 1.256H190.44V25H188.168V1.256ZM211.418 17.288H197.338C197.466 19.0373 198.138 20.456 199.354 21.544C200.57 22.6107 202.106 23.144 203.962 23.144C205.007 23.144 205.967 22.9627 206.842 22.6C207.716 22.216 208.474 21.6613 209.114 20.936L210.394 22.408C209.647 23.304 208.708 23.9867 207.578 24.456C206.468 24.9253 205.242 25.16 203.898 25.16C202.17 25.16 200.634 24.7973 199.29 24.072C197.967 23.3253 196.932 22.3013 196.186 21C195.439 19.6987 195.066 18.2267 195.066 16.584C195.066 14.9413 195.418 13.4693 196.122 12.168C196.847 10.8667 197.828 9.85333 199.066 9.128C200.324 8.40267 201.732 8.04 203.29 8.04C204.847 8.04 206.244 8.40267 207.482 9.128C208.719 9.85333 209.69 10.8667 210.394 12.168C211.098 13.448 211.45 14.92 211.45 16.584L211.418 17.288ZM203.29 9.992C201.668 9.992 200.303 10.5147 199.194 11.56C198.106 12.584 197.487 13.928 197.338 15.592H209.274C209.124 13.928 208.495 12.584 207.386 11.56C206.298 10.5147 204.932 9.992 203.29 9.992Z" fill="#304042"/>
</svg>
